<?xml version="1.0" encoding="UTF-8" standalone="no"?><!DOCTYPE svg PUBLIC "-//W3C//DTD SVG 1.1//EN" "http://www.w3.org/Graphics/SVG/1.1/DTD/svg11.dtd"><svg width="100%" height="100%" viewBox="0 0 188 188" version="1.1" xmlns="http://www.w3.org/2000/svg" xmlns:xlink="http://www.w3.org/1999/xlink" xml:space="preserve" xmlns:serif="http://www.serif.com/" style="fill-rule:evenodd;clip-rule:evenodd;stroke-linejoin:round;stroke-miterlimit:2;"><rect id="Artboard1" x="0" y="0" width="187.087" height="187.087" style="fill:none;"/><path d="M33.821,142.716l119.445,0c7.084,0 11.379,-3.693 11.379,-9.119c0,-7.536 -7.686,-14.318 -14.167,-21.025c-4.974,-5.2 -6.331,-15.901 -6.934,-24.568c-0.527,-28.938 -8.214,-48.908 -28.259,-56.143c-2.864,-9.796 -10.626,-17.634 -21.779,-17.634c-11.078,0 -18.916,7.838 -21.704,17.634c-20.046,7.235 -27.732,27.205 -28.26,56.143c-0.603,8.667 -1.959,19.368 -6.933,24.568c-6.556,6.707 -14.168,13.489 -14.168,21.025c0,5.426 4.221,9.119 11.38,9.119Zm59.685,30.143c12.811,0 22.155,-9.344 23.135,-19.895l-46.195,0c0.979,10.551 10.324,19.895 23.06,19.895Z" style="fill:#fff;fill-rule:nonzero;"/></svg>
