<?xml version="1.0" encoding="UTF-8" standalone="no"?><!DOCTYPE svg PUBLIC "-//W3C//DTD SVG 1.1//EN" "http://www.w3.org/Graphics/SVG/1.1/DTD/svg11.dtd"><svg width="100%" height="100%" viewBox="0 0 513 513" version="1.1" xmlns="http://www.w3.org/2000/svg" xmlns:xlink="http://www.w3.org/1999/xlink" xml:space="preserve" xmlns:serif="http://www.serif.com/" style="fill-rule:evenodd;clip-rule:evenodd;stroke-linejoin:round;stroke-miterlimit:2;"><rect id="Artboard9" x="0.821" y="0.336" width="512" height="512" style="fill:none;"/><path d="M121.451,490.331l178.835,0c38.124,0 55.99,-19.338 55.99,-57.831l0,-34.073l35.914,0c38.124,0 57.094,-19.338 57.094,-57.831l0,-260.424c0,-38.493 -19.154,-57.831 -57.094,-57.831l-177.73,0c-37.94,0 -57.094,19.338 -57.094,57.831l0,34.072l-35.915,0c-37.94,0 -57.094,19.339 -57.094,57.831l0,260.425c0,38.677 18.97,57.831 57.094,57.831Zm137.027,-402.976c-8.104,0 -11.787,-5.342 -11.787,-10.867l0,-3.868c0,-5.709 3.683,-10.866 11.787,-10.866l89.694,0c8.104,0 11.787,5.157 11.787,10.866l0,3.868c0,5.525 -3.683,10.867 -11.787,10.867l-89.694,0Zm-135.737,373.324c-18.97,0 -28.732,-10.314 -28.732,-28.732l0,-259.503c0,-18.049 9.762,-28.547 28.916,-28.547l64.093,0l0,106.821c0,23.207 11.787,34.626 34.625,34.626l104.98,0l0,146.603c0,18.418 -9.761,28.732 -28.915,28.732l-174.967,0Zm102.401,-203.146c-7.367,0 -10.313,-2.947 -10.313,-10.13l0,-97.797l106.085,107.927l-95.772,0Z" style="fill:#8b8b8b;fill-rule:nonzero;"/></svg>
