<?xml version="1.0" encoding="UTF-8" standalone="no"?><!DOCTYPE svg PUBLIC "-//W3C//DTD SVG 1.1//EN" "http://www.w3.org/Graphics/SVG/1.1/DTD/svg11.dtd"><svg width="100%" height="100%" viewBox="0 0 328 333" version="1.1" xmlns="http://www.w3.org/2000/svg" xmlns:xlink="http://www.w3.org/1999/xlink" xml:space="preserve" xmlns:serif="http://www.serif.com/" style="fill-rule:evenodd;clip-rule:evenodd;stroke-linejoin:round;stroke-miterlimit:2;"><path d="M309.652,46.405l12.823,-13.31c6.655,-6.98 7.304,-17.043 0.487,-23.699l-4.545,-4.707c-5.844,-6.006 -16.07,-4.707 -22.725,1.786l-13.148,12.823l27.108,27.107Zm-182.123,161.996l34.249,-14.122l136.349,-136.187l-27.108,-26.945l-136.186,136.187l-14.609,33.438c-1.948,4.545 3.084,9.252 7.305,7.629Zm-71.259,124.499l187.804,0c32.789,0 52.105,-19.154 52.105,-55.026l0,-174.819l-37.171,37.171l0,133.59c0,14.771 -7.629,21.913 -18.342,21.913l-180.987,0c-14.122,0 -21.589,-7.142 -21.589,-21.913l0,-177.254c0,-14.771 7.467,-21.751 21.589,-21.751l124.499,0l37.172,-37.171l-165.08,0c-36.035,0 -55.351,19.154 -55.351,54.864l0,185.37c0,35.872 19.316,55.026 55.351,55.026Z" style="fill:#fff;fill-rule:nonzero;"/></svg>