<svg width="400" height="421" viewBox="0 0 400 421" fill="none" xmlns="http://www.w3.org/2000/svg">
<g clip-path="url(#clip0)">
<g clip-path="url(#clip1)">
<path d="M342.442 136.259L278.704 157.761C276.953 146.418 272.158 124.446 272.158 124.446C273.533 100.666 276.106 79.0486 291.896 63.0115L305.965 58.3148C328.27 88.312 336.377 105.371 342.442 136.259Z" fill="#FF176B"/>
<path d="M142.068 239.868C138.008 213.57 122.815 200.381 119.359 157.377L146.409 163.267C168.965 175.342 190.381 203.594 195.85 232.757L195.85 249.001L142.068 239.868Z" fill="#FFA928"/>
<path d="M290.335 98.4615C284.85 100.228 276.639 106.591 273.291 110.363C273.291 98.4832 279.397 78.478 286.547 67.6052C285.771 75.7911 287.347 91.022 290.335 98.4615Z" stroke="black" stroke-width="4.73695"/>
<path d="M192.007 212.6C184.348 198.077 174.071 183.259 161.423 170.5C167.766 186.666 169.13 193.682 167.766 205.569C173.489 205.569 183.94 207.712 192.007 212.6Z" stroke="black" stroke-width="4.73695"/>
<circle cx="199.918" cy="156.47" r="142.701" stroke="black" stroke-width="17.7636"/>
<path d="M97.0366 60.4864C177.223 88.7411 221.4 88.6597 298.835 60.4864M62.4574 136.87C171.243 181.698 231.51 182.91 337.543 136.87M66.8574 206.023C160.136 262.584 241.91 260.904 333.317 206.023" stroke="black" stroke-width="17.7636"/>
<path d="M200 14.8034V298.137" stroke="black" stroke-width="17.7636"/>
<path d="M200 14.8034C200 14.8034 123.694 74.7514 123.694 164.038C123.694 253.325 200 298.137 200 298.137" stroke="black" stroke-width="17.7636"/>
<path d="M200 14.8034C200 14.8034 276.306 74.7514 276.306 164.038C276.306 253.325 200 298.137 200 298.137" stroke="black" stroke-width="17.7636"/>
</g>
<path d="M24.3726 345.962L38.2434 395.053H50.3244L59.5289 361.878H60.2001L69.4046 395.053H81.4536L95.3563 345.962H83.531L75.0296 380.287H74.5502L65.7292 345.962H54.0637L45.2427 380.479H44.7952L36.166 345.962H24.3726ZM121.149 396.012C132.591 396.012 140.453 390.419 142.498 381.885L131.696 380.671C130.13 384.826 126.294 386.999 121.309 386.999C113.83 386.999 108.876 382.077 108.78 373.671H142.978V370.124C142.978 352.897 132.623 345.323 120.542 345.323C106.479 345.323 97.3065 355.646 97.3065 370.795C97.3065 386.2 106.351 396.012 121.149 396.012ZM108.812 365.873C109.164 359.609 113.798 354.336 120.701 354.336C127.349 354.336 131.824 359.193 131.887 365.873H108.812ZM150.577 395.053H161.955V387.318H162.626C164.448 390.898 168.251 395.916 176.688 395.916C188.258 395.916 196.919 386.743 196.919 370.571C196.919 354.208 188.002 345.323 176.656 345.323C167.995 345.323 164.384 350.532 162.626 354.08H162.146V329.598H150.577V395.053ZM161.923 370.507C161.923 360.983 166.014 354.815 173.46 354.815C181.163 354.815 185.126 361.367 185.126 370.507C185.126 379.712 181.099 386.424 173.46 386.424C166.078 386.424 161.923 380.032 161.923 370.507ZM225.404 414.293C238.668 414.293 248.448 408.22 248.448 395.852V345.962H237.038V354.08H236.399C234.641 350.532 230.965 345.323 222.304 345.323C210.958 345.323 202.041 354.208 202.041 370.348C202.041 386.36 210.958 394.35 222.272 394.35C230.678 394.35 234.609 389.843 236.399 386.232H236.974V395.532C236.974 402.564 232.18 405.536 225.596 405.536C218.629 405.536 215.561 402.244 214.154 399.559L203.735 402.084C205.845 408.764 212.908 414.293 225.404 414.293ZM225.5 385.273C217.862 385.273 213.835 379.328 213.835 370.284C213.835 361.367 217.798 354.815 225.5 354.815C232.947 354.815 237.038 360.983 237.038 370.284C237.038 379.648 232.883 385.273 225.5 385.273ZM269.175 329.598H257.605V395.053H269.175V329.598ZM278.372 377.219C278.372 389.012 285.083 395.692 294.735 395.692C302.086 395.692 307.264 391.825 309.501 386.328H310.012V395.053H321.23V345.962H309.661V374.407C309.661 381.885 304.323 385.593 299.21 385.593C293.649 385.593 289.941 381.662 289.941 375.429V345.962H278.372V377.219ZM352.161 396.012C363.602 396.012 371.465 390.419 373.51 381.885L362.707 380.671C361.141 384.826 357.306 386.999 352.32 386.999C344.842 386.999 339.888 382.077 339.792 373.671H373.989V370.124C373.989 352.897 363.634 345.323 351.553 345.323C337.491 345.323 328.318 355.646 328.318 370.795C328.318 386.2 337.363 396.012 352.161 396.012ZM339.824 365.873C340.175 359.609 344.81 354.336 351.713 354.336C358.361 354.336 362.835 359.193 362.899 365.873H339.824Z" fill="url(#paint0_linear)"/>
</g>
<defs>
<linearGradient id="paint0_linear" x1="24.4262" y1="346.264" x2="378.539" y2="395.053" gradientUnits="userSpaceOnUse">
<stop stop-color="#FFA928"/>
<stop offset="1" stop-color="#FF176B"/>
</linearGradient>
<clipPath id="clip0">
<rect width="400" height="421" fill="white"/>
</clipPath>
<clipPath id="clip1">
<rect width="303.165" height="303.165" fill="white" transform="translate(48.3357 4.8877)"/>
</clipPath>
</defs>
</svg>
