<?xml version="1.0" encoding="UTF-8" standalone="no"?><!DOCTYPE svg PUBLIC "-//W3C//DTD SVG 1.1//EN" "http://www.w3.org/Graphics/SVG/1.1/DTD/svg11.dtd"><svg width="100%" height="100%" viewBox="0 0 512 512" version="1.1" xmlns="http://www.w3.org/2000/svg" xmlns:xlink="http://www.w3.org/1999/xlink" xml:space="preserve" xmlns:serif="http://www.serif.com/" style="fill-rule:evenodd;clip-rule:evenodd;stroke-linejoin:round;stroke-miterlimit:2;"><rect id="Artboard9" x="0" y="0" width="512" height="512" style="fill:none;"/><path d="M256.106,329.051c9.091,0 16.703,-7.612 16.703,-16.492l0,-217.144l-1.269,-31.715l14.167,15.012l32.138,34.253c2.96,3.382 7.4,5.074 11.417,5.074c8.669,0 15.435,-6.343 15.435,-15.012c0,-4.44 -1.903,-7.823 -5.075,-10.994l-71.465,-68.928c-4.228,-4.229 -7.823,-5.709 -12.051,-5.709c-4.44,0 -8.035,1.48 -12.263,5.709l-71.465,68.928c-3.172,3.171 -5.075,6.554 -5.075,10.994c0,8.669 6.343,15.012 15.224,15.012c4.017,0 8.668,-1.692 11.628,-5.074l32.138,-34.253l14.167,-15.012l-1.269,31.715l0,217.144c0,8.88 7.823,16.492 16.915,16.492Zm-121.364,165.553l242.516,0c44.19,0 66.39,-21.989 66.39,-65.545l0,-211.011c0,-43.556 -22.2,-65.545 -66.39,-65.545l-58.991,0l0,34.041l58.356,0c20.932,0 32.984,11.417 32.984,33.406l0,207.206c0,21.989 -12.052,33.407 -32.984,33.407l-241.458,0c-21.143,0 -32.772,-11.418 -32.772,-33.407l0,-207.206c0,-21.989 11.629,-33.406 32.772,-33.406l58.568,0l0,-34.041l-58.991,0c-44.19,0 -66.39,21.989 -66.39,65.545l0,211.011c0,43.556 22.2,65.545 66.39,65.545Z" style="fill:#8b8b8b;fill-rule:nonzero;"/></svg>
